{"title":"20 To 1 - S11E08 - Celebrity Hook-Ups","uid":15313203,"size":1128821637,"categoryP":"video","categoryS":"tv_shows","magnet":"?xt=urn:btih:0c9709a9a2112247601ef6f063a267e8e68c0259&amp;dn=20+To+1+-+S11E08+-+Celebrity+Hook-Ups&amp;tr=udp%3A%2F%2Ftracker.leechers-paradise.org%3A6969&amp;tr=udp%3A%2F%2Fzer0day.ch%3A1337&amp;tr=udp%3A%2F%2Fopen.demonii.com%3A1337&amp;tr=udp%3A%2F%2Ftracker.coppersurfer.tk%3A6969&amp;tr=udp%3A%2F%2Fexodus.desync.com%3A6969","seeders":3,"leechers":0,"uploader":"Bullrout","files":1,"time":1468599844,"description":"20 To 1 - S11E08 - Celebrity Hook-Ups\r\n\r\nNever has the world been more fascinated with celebrity and when two celebs hook up, That's gossip gold! In this countdown, we check out your favourite celebrity hook-ups, including Music super couple Beyonce and Jay-Z.\r\n\r\nComplete name                            : 20 To 1 - S11E08 - Celebrity Hook-Ups.mkv\r\nFormat                                   : Matroska\r\nFormat version                           : Version 4 / Version 2\r\nFile size                                : 1.05 GiB\r\nDuration                                 : 45mn 29s\r\nOverall bit rate mode                    : Variable\r\nOverall bit rate                         : 3 309 Kbps\r\nEncoded date                             : UTC 2016-07-15 02:34:05\r\nWriting application                      : mkvmerge v9.3.1 ('Mask Machine') 64bit\r\nWriting library                          : libebml v1.3.4 + libmatroska v1.4.5\r\n\r\nVideo\r\nID                                       : 2\r\nFormat                                   : AVC\r\nFormat/Info                              : Advanced Video Codec\r\nFormat profile                           :   \r\nFormat settings, CABAC                   : Yes\r\nFormat settings, ReFrames                : 3 frames\r\nCodec ID                                 : V_MPEG4/ISO/AVC\r\nDuration                                 : 45mn 29s\r\nBit rate mode                            : Variable\r\nBit rate                                 : 2 923 Kbps\r\nMaximum bit rate                         : 3 000 Kbps\r\nWidth                                    : 1 280 pixels\r\nHeight                                   : 720 pixels\r\nDisplay aspect ratio                     : 16:9\r\nFrame rate mode                          : Constant\r\nFrame rate                               : 25.000 fps\r\nStandard                                 : PAL\r\nColor space                              : YUV\r\nChroma subsampling                       : 4:2:0\r\nBit depth                                : 8 bits\r\nScan type                                : Progressive\r\nBits/(Pixel*Frame)                       : 0.127\r\nStream size                              : 951 MiB (88%)\r\nWriting library                          : x264 core 112\r\nDefault                                  : Yes\r\nForced                                   : No\r\nColor range                              : Limited\r\nColor primaries                          : BT.709\r\nTransfer characteristics                 : BT.709\r\nMatrix coefficients                      : BT.709\r\n\r\nAudio\r\nID                                       : 1\r\nFormat                                   : AC-3\r\nFormat/Info                              : Audio Coding 3\r\nMode extension                           : CM (complete main)\r\nFormat settings, Endianness              : Big\r\nCodec ID                                 : A_AC3\r\nDuration                                 : 45mn 29s\r\nBit rate mode                            : Constant\r\nBit rate                                 : 384 Kbps\r\nChannel(s)                               : 6 channels\r\nChannel positions                        : Front: L C R, Side: L R, LFE\r\nSampling rate                            : 48.0 KHz\r\nFrame rate                               : 31.250 fps (1536 spf)\r\nCompression mode                         : Lossy\r\nStream size                              : 125 MiB (12%)\r\nDefault                                  : Yes\r\nForced                                   : No","torrent":{"xt":"urn:btih:0c9709a9a2112247601ef6f063a267e8e68c0259","amp;dn":"20+To+1+-+S11E08+-+Celebrity+Hook-Ups","amp;tr":["udp%3A%2F%2Ftracker.leechers-paradise.org%3A6969","udp%3A%2F%2Fzer0day.ch%3A1337","udp%3A%2F%2Fopen.demonii.com%3A1337","udp%3A%2F%2Ftracker.coppersurfer.tk%3A6969","udp%3A%2F%2Fexodus.desync.com%3A6969"],"infoHash":"0c9709a9a2112247601ef6f063a267e8e68c0259","infoHashBuffer":{"type":"Buffer","data":[12,151,9,169,162,17,34,71,96,30,246,240,99,162,103,232,230,140,2,89]},"announce":[],"urlList":[]}}